<?xml version="1.0" encoding="UTF-8"?><svg xmlns="http://www.w3.org/2000/svg" xmlns:xlink="http://www.w3.org/1999/xlink" fill-opacity="1" color-rendering="auto" color-interpolation="auto" text-rendering="auto" stroke="black" stroke-linecap="square" width="1205" stroke-miterlimit="10" shape-rendering="auto" stroke-opacity="1" fill="black" stroke-dasharray="none" font-weight="normal" stroke-width="1" height="443" font-family="'Dialog'" font-style="normal" stroke-linejoin="miter" font-size="12px" stroke-dashoffset="0" image-rendering="auto">
  <!--Generated by ySVG 2.5-->
  <defs id="genericDefs"/>
  <g>
    <defs id="defs1">
      <linearGradient x1="50" gradientUnits="userSpaceOnUse" x2="130" y1="308.0952" y2="654.4598" id="linearGradient1" spreadMethod="reflect">
        <stop stop-opacity="1" stop-color="rgb(232,238,247)" offset="0%"/>
        <stop stop-opacity="1" stop-color="rgb(183,201,227)" offset="100%"/>
      </linearGradient>
      <clipPath clipPathUnits="userSpaceOnUse" id="clipPath1">
        <path d="M0 0 L1205 0 L1205 443 L0 443 L0 0 Z"/>
      </clipPath>
      <clipPath clipPathUnits="userSpaceOnUse" id="clipPath2">
        <path d="M35 230 L1240 230 L1240 673 L35 673 L35 230 Z"/>
      </clipPath>
      <clipPath clipPathUnits="userSpaceOnUse" id="clipPath3">
        <path d="M35 308.0952 L35 673 L1240 673 L1240 308.0952 Z"/>
      </clipPath>
      <clipPath clipPathUnits="userSpaceOnUse" id="clipPath4">
        <path d="M35 230 L35 308.0952 L1240 308.0952 L1240 230 Z"/>
      </clipPath>
      <clipPath clipPathUnits="userSpaceOnUse" id="clipPath5">
        <path d="M220 325 L220 353 L320 353 L320 325 Z"/>
      </clipPath>
      <clipPath clipPathUnits="userSpaceOnUse" id="clipPath6">
        <path d="M220 395 L220 423 L320 423 L320 395 Z"/>
      </clipPath>
      <clipPath clipPathUnits="userSpaceOnUse" id="clipPath7">
        <path d="M220 466 L220 494 L320 494 L320 466 Z"/>
      </clipPath>
      <clipPath clipPathUnits="userSpaceOnUse" id="clipPath8">
        <path d="M220 540 L220 568 L320 568 L320 540 Z"/>
      </clipPath>
      <clipPath clipPathUnits="userSpaceOnUse" id="clipPath9">
        <path d="M219 629 L219 657 L319 657 L319 629 Z"/>
      </clipPath>
      <clipPath clipPathUnits="userSpaceOnUse" id="clipPath10">
        <path d="M1120 325 L1120 353 L1220 353 L1220 325 Z"/>
      </clipPath>
      <clipPath clipPathUnits="userSpaceOnUse" id="clipPath11">
        <path d="M360 540 L360 568 L460 568 L460 540 Z"/>
      </clipPath>
      <clipPath clipPathUnits="userSpaceOnUse" id="clipPath12">
        <path d="M0 0 L0 22 L25 22 L25 0 Z"/>
      </clipPath>
      <clipPath clipPathUnits="userSpaceOnUse" id="clipPath13">
        <path d="M500 395 L500 423 L544 423 L544 395 Z"/>
      </clipPath>
      <clipPath clipPathUnits="userSpaceOnUse" id="clipPath14">
        <path d="M556 395 L556 423 L600 423 L600 395 Z"/>
      </clipPath>
      <clipPath clipPathUnits="userSpaceOnUse" id="clipPath15">
        <path d="M630 395 L630 423 L674 423 L674 395 Z"/>
      </clipPath>
      <clipPath clipPathUnits="userSpaceOnUse" id="clipPath16">
        <path d="M684 395 L684 423 L728 423 L728 395 Z"/>
      </clipPath>
      <clipPath clipPathUnits="userSpaceOnUse" id="clipPath17">
        <path d="M500 325 L500 353 L728 353 L728 325 Z"/>
      </clipPath>
      <clipPath clipPathUnits="userSpaceOnUse" id="clipPath18">
        <path d="M456 466 L456 494 L556 494 L556 466 Z"/>
      </clipPath>
      <clipPath clipPathUnits="userSpaceOnUse" id="clipPath19">
        <path d="M760 466 L760 494 L900 494 L900 466 Z"/>
      </clipPath>
      <clipPath clipPathUnits="userSpaceOnUse" id="clipPath20">
        <path d="M0 0 L0 22 L120 22 L120 0 Z"/>
      </clipPath>
      <clipPath clipPathUnits="userSpaceOnUse" id="clipPath21">
        <path d="M995 325 L995 353 L1095 353 L1095 325 Z"/>
      </clipPath>
      <clipPath clipPathUnits="userSpaceOnUse" id="clipPath22">
        <path d="M995 395 L995 423 L1095 423 L1095 395 Z"/>
      </clipPath>
      <clipPath clipPathUnits="userSpaceOnUse" id="clipPath23">
        <path d="M780 586 L780 614 L880 614 L880 586 Z"/>
      </clipPath>
      <clipPath clipPathUnits="userSpaceOnUse" id="clipPath24">
        <path d="M780 502 L780 530 L880 530 L880 502 Z"/>
      </clipPath>
      <clipPath clipPathUnits="userSpaceOnUse" id="clipPath25">
        <path d="M917 502 L917 530 L1017 530 L1017 502 Z"/>
      </clipPath>
      <clipPath clipPathUnits="userSpaceOnUse" id="clipPath26">
        <path d="M917 586 L917 614 L1017 614 L1017 586 Z"/>
      </clipPath>
      <clipPath clipPathUnits="userSpaceOnUse" id="clipPath27">
        <path d="M550 629 L550 657 L650 657 L650 629 Z"/>
      </clipPath>
      <clipPath clipPathUnits="userSpaceOnUse" id="clipPath28">
        <path d="M700 629 L700 657 L800 657 L800 629 Z"/>
      </clipPath>
      <clipPath clipPathUnits="userSpaceOnUse" id="clipPath29">
        <path d="M864 629 L864 657 L964 657 L964 629 Z"/>
      </clipPath>
      <clipPath clipPathUnits="userSpaceOnUse" id="clipPath30">
        <path d="M500 540 L500 568 L600 568 L600 540 Z"/>
      </clipPath>
    </defs>
    <g fill="white" text-rendering="geometricPrecision" shape-rendering="geometricPrecision" transform="translate(-35,-230)" stroke="white">
      <rect x="35" width="1205" height="443" y="230" clip-path="url(#clipPath2)" stroke="none"/>
    </g>
    <g fill="rgb(183,201,227)" text-rendering="geometricPrecision" shape-rendering="geometricPrecision" transform="matrix(1,0,0,1,-35,-230)" stroke="rgb(183,201,227)">
      <ellipse rx="55" ry="25" clip-path="url(#clipPath2)" cx="270" cy="270" stroke="none"/>
    </g>
    <g font-size="13px" stroke-linecap="butt" transform="matrix(1,0,0,1,-35,-230)" text-rendering="geometricPrecision" font-family="sans-serif" shape-rendering="geometricPrecision" stroke-miterlimit="1.45">
      <text x="247.0437" xml:space="preserve" y="274.5005" clip-path="url(#clipPath2)" stroke="none">Acceso</text>
    </g>
    <g fill="rgb(183,201,227)" text-rendering="geometricPrecision" shape-rendering="geometricPrecision" transform="matrix(1,0,0,1,-35,-230)" stroke="rgb(183,201,227)">
      <ellipse rx="55" ry="25" clip-path="url(#clipPath2)" cx="1170" cy="270" stroke="none"/>
    </g>
    <g font-size="13px" stroke-linecap="butt" transform="matrix(1,0,0,1,-35,-230)" text-rendering="geometricPrecision" font-family="sans-serif" shape-rendering="geometricPrecision" stroke-miterlimit="1.45">
      <text x="1147.104" xml:space="preserve" y="274.5005" clip-path="url(#clipPath2)" stroke="none">Spento</text>
    </g>
    <g fill="url(#linearGradient1)" text-rendering="geometricPrecision" shape-rendering="geometricPrecision" transform="matrix(1,0,0,1,-35,-230)" stroke="url(#linearGradient1)">
      <rect x="50" y="278.1265" clip-path="url(#clipPath3)" width="80" rx="4" ry="4" height="376.3333" stroke="none"/>
      <rect x="50" y="278.1265" clip-path="url(#clipPath4)" fill="rgb(183,201,227)" width="80" rx="4" ry="4" height="376.3333" stroke="none"/>
    </g>
    <g text-rendering="geometricPrecision" stroke-miterlimit="1.45" shape-rendering="geometricPrecision" transform="matrix(1,0,0,1,-35,-230)" stroke-linecap="butt">
      <rect x="50" y="278.1265" clip-path="url(#clipPath2)" fill="none" width="80" rx="4" ry="4" height="376.3333"/>
      <line y2="308.0952" fill="none" x1="50" clip-path="url(#clipPath2)" x2="130" y1="308.0952"/>
      <text x="76.1426" xml:space="preserve" y="297.2651" clip-path="url(#clipPath2)" font-family="sans-serif" stroke="none">Stati</text>
      <text x="85.3506" xml:space="preserve" y="345.7443" clip-path="url(#clipPath2)" font-family="sans-serif" stroke="none">G</text>
      <text x="88.0928" xml:space="preserve" y="359.713" clip-path="url(#clipPath2)" font-family="sans-serif" stroke="none"> </text>
      <text x="88.0928" xml:space="preserve" y="373.6818" clip-path="url(#clipPath2)" font-family="sans-serif" stroke="none"> </text>
      <text x="88.0928" xml:space="preserve" y="387.6505" clip-path="url(#clipPath2)" font-family="sans-serif" stroke="none"> </text>
      <text x="88.0928" xml:space="preserve" y="401.6193" clip-path="url(#clipPath2)" font-family="sans-serif" stroke="none"> </text>
      <text x="86.1914" xml:space="preserve" y="415.588" clip-path="url(#clipPath2)" font-family="sans-serif" stroke="none">S</text>
      <text x="88.0928" xml:space="preserve" y="429.5568" clip-path="url(#clipPath2)" font-family="sans-serif" stroke="none"> </text>
      <text x="88.0928" xml:space="preserve" y="443.5255" clip-path="url(#clipPath2)" font-family="sans-serif" stroke="none"> </text>
      <text x="88.0928" xml:space="preserve" y="457.4943" clip-path="url(#clipPath2)" font-family="sans-serif" stroke="none"> </text>
      <text x="88.0928" xml:space="preserve" y="471.463" clip-path="url(#clipPath2)" font-family="sans-serif" stroke="none"> </text>
      <text x="85.3799" xml:space="preserve" y="485.4318" clip-path="url(#clipPath2)" font-family="sans-serif" stroke="none">D</text>
      <text x="88.0928" xml:space="preserve" y="499.4005" clip-path="url(#clipPath2)" font-family="sans-serif" stroke="none"> </text>
      <text x="88.0928" xml:space="preserve" y="513.3693" clip-path="url(#clipPath2)" font-family="sans-serif" stroke="none"> </text>
      <text x="88.0928" xml:space="preserve" y="527.3381" clip-path="url(#clipPath2)" font-family="sans-serif" stroke="none"> </text>
      <text x="88.0928" xml:space="preserve" y="541.3068" clip-path="url(#clipPath2)" font-family="sans-serif" stroke="none"> </text>
      <text x="86.6572" xml:space="preserve" y="555.2756" clip-path="url(#clipPath2)" font-family="sans-serif" stroke="none">L</text>
      <text x="88.0928" xml:space="preserve" y="569.2443" clip-path="url(#clipPath2)" font-family="sans-serif" stroke="none"> </text>
      <text x="88.0928" xml:space="preserve" y="583.2131" clip-path="url(#clipPath2)" font-family="sans-serif" stroke="none"> </text>
      <text x="88.0928" xml:space="preserve" y="597.1818" clip-path="url(#clipPath2)" font-family="sans-serif" stroke="none"> </text>
      <text x="88.0928" xml:space="preserve" y="611.1506" clip-path="url(#clipPath2)" font-family="sans-serif" stroke="none"> </text>
      <text x="85.8105" xml:space="preserve" y="625.1193" clip-path="url(#clipPath2)" font-family="sans-serif" stroke="none">C</text>
    </g>
    <g fill="rgb(232,238,247)" text-rendering="geometricPrecision" shape-rendering="geometricPrecision" transform="matrix(1,0,0,1,-35,-230)" stroke="rgb(232,238,247)">
      <rect x="221" width="98" height="26" y="326" clip-path="url(#clipPath2)" stroke="none"/>
      <rect x="220" y="325" clip-path="url(#clipPath2)" fill="white" width="1" height="28" stroke="none"/>
      <rect x="221" y="325" clip-path="url(#clipPath2)" fill="white" width="98" height="1" stroke="none"/>
      <rect x="221" y="352" clip-path="url(#clipPath2)" fill="rgb(162,166,172)" width="99" height="1" stroke="none"/>
      <rect x="319" y="325" clip-path="url(#clipPath2)" fill="rgb(162,166,172)" width="1" height="27" stroke="none"/>
    </g>
    <g font-size="13px" stroke-linecap="butt" transform="matrix(1,0,0,1,-35,-230)" text-rendering="geometricPrecision" font-family="sans-serif" shape-rendering="geometricPrecision" font-weight="bold" stroke-miterlimit="1.45">
      <text x="260.1421" xml:space="preserve" y="342.0669" clip-path="url(#clipPath5)" stroke="none">G0</text>
    </g>
    <g fill="rgb(232,238,247)" text-rendering="geometricPrecision" shape-rendering="geometricPrecision" transform="matrix(1,0,0,1,-35,-230)" stroke="rgb(232,238,247)">
      <rect x="221" width="98" height="26" y="396" clip-path="url(#clipPath2)" stroke="none"/>
      <rect x="220" y="395" clip-path="url(#clipPath2)" fill="white" width="1" height="28" stroke="none"/>
      <rect x="221" y="395" clip-path="url(#clipPath2)" fill="white" width="98" height="1" stroke="none"/>
      <rect x="221" y="422" clip-path="url(#clipPath2)" fill="rgb(162,166,172)" width="99" height="1" stroke="none"/>
      <rect x="319" y="395" clip-path="url(#clipPath2)" fill="rgb(162,166,172)" width="1" height="27" stroke="none"/>
    </g>
    <g font-size="13px" stroke-linecap="butt" transform="matrix(1,0,0,1,-35,-230)" text-rendering="geometricPrecision" font-family="sans-serif" shape-rendering="geometricPrecision" font-weight="bold" stroke-miterlimit="1.45">
      <text x="260.7959" xml:space="preserve" y="412.5669" clip-path="url(#clipPath6)" stroke="none">S0</text>
    </g>
    <g fill="rgb(232,238,247)" text-rendering="geometricPrecision" shape-rendering="geometricPrecision" transform="matrix(1,0,0,1,-35,-230)" stroke="rgb(232,238,247)">
      <rect x="221" width="98" height="26" y="467" clip-path="url(#clipPath2)" stroke="none"/>
      <rect x="220" y="466" clip-path="url(#clipPath2)" fill="white" width="1" height="28" stroke="none"/>
      <rect x="221" y="466" clip-path="url(#clipPath2)" fill="white" width="98" height="1" stroke="none"/>
      <rect x="221" y="493" clip-path="url(#clipPath2)" fill="rgb(162,166,172)" width="99" height="1" stroke="none"/>
      <rect x="319" y="466" clip-path="url(#clipPath2)" fill="rgb(162,166,172)" width="1" height="27" stroke="none"/>
    </g>
    <g font-size="13px" stroke-linecap="butt" transform="matrix(1,0,0,1,-35,-230)" text-rendering="geometricPrecision" font-family="sans-serif" shape-rendering="geometricPrecision" font-weight="bold" stroke-miterlimit="1.45">
      <text x="260.0818" xml:space="preserve" y="483.0669" clip-path="url(#clipPath7)" stroke="none">D0</text>
    </g>
    <g fill="rgb(232,238,247)" text-rendering="geometricPrecision" shape-rendering="geometricPrecision" transform="matrix(1,0,0,1,-35,-230)" stroke="rgb(232,238,247)">
      <rect x="221" width="98" height="26" y="541" clip-path="url(#clipPath2)" stroke="none"/>
      <rect x="220" y="540" clip-path="url(#clipPath2)" fill="white" width="1" height="28" stroke="none"/>
      <rect x="221" y="540" clip-path="url(#clipPath2)" fill="white" width="98" height="1" stroke="none"/>
      <rect x="221" y="567" clip-path="url(#clipPath2)" fill="rgb(162,166,172)" width="99" height="1" stroke="none"/>
      <rect x="319" y="540" clip-path="url(#clipPath2)" fill="rgb(162,166,172)" width="1" height="27" stroke="none"/>
    </g>
    <g font-size="13px" stroke-linecap="butt" transform="matrix(1,0,0,1,-35,-230)" text-rendering="geometricPrecision" font-family="sans-serif" shape-rendering="geometricPrecision" font-weight="bold" stroke-miterlimit="1.45">
      <text x="261.3354" xml:space="preserve" y="557.4982" clip-path="url(#clipPath8)" stroke="none">L0</text>
    </g>
    <g fill="rgb(232,238,247)" text-rendering="geometricPrecision" shape-rendering="geometricPrecision" transform="matrix(1,0,0,1,-35,-230)" stroke="rgb(232,238,247)">
      <rect x="220" width="98" height="26" y="630" clip-path="url(#clipPath2)" stroke="none"/>
      <rect x="219" y="629" clip-path="url(#clipPath2)" fill="white" width="1" height="28" stroke="none"/>
      <rect x="220" y="629" clip-path="url(#clipPath2)" fill="white" width="98" height="1" stroke="none"/>
      <rect x="220" y="656" clip-path="url(#clipPath2)" fill="rgb(162,166,172)" width="99" height="1" stroke="none"/>
      <rect x="318" y="629" clip-path="url(#clipPath2)" fill="rgb(162,166,172)" width="1" height="27" stroke="none"/>
    </g>
    <g font-size="13px" stroke-linecap="butt" transform="matrix(1,0,0,1,-35,-230)" text-rendering="geometricPrecision" font-family="sans-serif" shape-rendering="geometricPrecision" font-weight="bold" stroke-miterlimit="1.45">
      <text x="260.707" xml:space="preserve" y="646.9014" clip-path="url(#clipPath9)" stroke="none">C0</text>
    </g>
    <g fill="rgb(232,238,247)" text-rendering="geometricPrecision" shape-rendering="geometricPrecision" transform="matrix(1,0,0,1,-35,-230)" stroke="rgb(232,238,247)">
      <rect x="1121" width="98" height="26" y="326" clip-path="url(#clipPath2)" stroke="none"/>
      <rect x="1120" y="325" clip-path="url(#clipPath2)" fill="white" width="1" height="28" stroke="none"/>
      <rect x="1121" y="325" clip-path="url(#clipPath2)" fill="white" width="98" height="1" stroke="none"/>
      <rect x="1121" y="352" clip-path="url(#clipPath2)" fill="rgb(162,166,172)" width="99" height="1" stroke="none"/>
      <rect x="1219" y="325" clip-path="url(#clipPath2)" fill="rgb(162,166,172)" width="1" height="27" stroke="none"/>
    </g>
    <g font-size="13px" stroke-linecap="butt" transform="matrix(1,0,0,1,-35,-230)" text-rendering="geometricPrecision" font-family="sans-serif" shape-rendering="geometricPrecision" font-weight="bold" stroke-miterlimit="1.45">
      <text x="1160.1421" xml:space="preserve" y="342.0669" clip-path="url(#clipPath10)" stroke="none">G3</text>
    </g>
    <g fill="rgb(232,238,247)" text-rendering="geometricPrecision" shape-rendering="geometricPrecision" transform="matrix(1,0,0,1,-35,-230)" stroke="rgb(232,238,247)">
      <rect x="361" width="98" height="26" y="541" clip-path="url(#clipPath2)" stroke="none"/>
      <rect x="360" y="540" clip-path="url(#clipPath2)" fill="white" width="1" height="28" stroke="none"/>
      <rect x="361" y="540" clip-path="url(#clipPath2)" fill="white" width="98" height="1" stroke="none"/>
      <rect x="361" y="567" clip-path="url(#clipPath2)" fill="rgb(162,166,172)" width="99" height="1" stroke="none"/>
      <rect x="459" y="540" clip-path="url(#clipPath2)" fill="rgb(162,166,172)" width="1" height="27" stroke="none"/>
    </g>
    <g font-size="13px" stroke-linecap="butt" transform="matrix(1,0,0,1,-35,-230) translate(397,545)" text-rendering="geometricPrecision" font-family="sans-serif" shape-rendering="geometricPrecision" font-weight="bold" stroke-miterlimit="1.45">
      <text x="0" xml:space="preserve" y="12" clip-path="url(#clipPath12)" stroke="none">L0</text>
      <text x="17" xml:space="preserve" font-size="11px" y="18" clip-path="url(#clipPath12)" stroke="none">S</text>
    </g>
    <g fill="rgb(232,238,247)" text-rendering="geometricPrecision" shape-rendering="geometricPrecision" transform="matrix(1,0,0,1,-35,-230)" stroke="rgb(232,238,247)">
      <rect x="501" width="42" height="26" y="396" clip-path="url(#clipPath2)" stroke="none"/>
      <rect x="500" y="395" clip-path="url(#clipPath2)" fill="white" width="1" height="28" stroke="none"/>
      <rect x="501" y="395" clip-path="url(#clipPath2)" fill="white" width="42" height="1" stroke="none"/>
      <rect x="501" y="422" clip-path="url(#clipPath2)" fill="rgb(162,166,172)" width="43" height="1" stroke="none"/>
      <rect x="543" y="395" clip-path="url(#clipPath2)" fill="rgb(162,166,172)" width="1" height="27" stroke="none"/>
    </g>
    <g font-size="13px" stroke-linecap="butt" transform="matrix(1,0,0,1,-35,-230)" text-rendering="geometricPrecision" font-family="sans-serif" shape-rendering="geometricPrecision" font-weight="bold" stroke-miterlimit="1.45">
      <text x="512.7959" xml:space="preserve" y="412.5669" clip-path="url(#clipPath13)" stroke="none">S1</text>
    </g>
    <g fill="rgb(232,238,247)" text-rendering="geometricPrecision" shape-rendering="geometricPrecision" transform="matrix(1,0,0,1,-35,-230)" stroke="rgb(232,238,247)">
      <rect x="557" width="42" height="26" y="396" clip-path="url(#clipPath2)" stroke="none"/>
      <rect x="556" y="395" clip-path="url(#clipPath2)" fill="white" width="1" height="28" stroke="none"/>
      <rect x="557" y="395" clip-path="url(#clipPath2)" fill="white" width="42" height="1" stroke="none"/>
      <rect x="557" y="422" clip-path="url(#clipPath2)" fill="rgb(162,166,172)" width="43" height="1" stroke="none"/>
      <rect x="599" y="395" clip-path="url(#clipPath2)" fill="rgb(162,166,172)" width="1" height="27" stroke="none"/>
    </g>
    <g font-size="13px" stroke-linecap="butt" transform="matrix(1,0,0,1,-35,-230)" text-rendering="geometricPrecision" font-family="sans-serif" shape-rendering="geometricPrecision" font-weight="bold" stroke-miterlimit="1.45">
      <text x="568.7959" xml:space="preserve" y="412.5669" clip-path="url(#clipPath14)" stroke="none">S2</text>
    </g>
    <g fill="rgb(232,238,247)" text-rendering="geometricPrecision" shape-rendering="geometricPrecision" transform="matrix(1,0,0,1,-35,-230)" stroke="rgb(232,238,247)">
      <rect x="631" width="42" height="26" y="396" clip-path="url(#clipPath2)" stroke="none"/>
      <rect x="630" y="395" clip-path="url(#clipPath2)" fill="white" width="1" height="28" stroke="none"/>
      <rect x="631" y="395" clip-path="url(#clipPath2)" fill="white" width="42" height="1" stroke="none"/>
      <rect x="631" y="422" clip-path="url(#clipPath2)" fill="rgb(162,166,172)" width="43" height="1" stroke="none"/>
      <rect x="673" y="395" clip-path="url(#clipPath2)" fill="rgb(162,166,172)" width="1" height="27" stroke="none"/>
    </g>
    <g font-size="13px" stroke-linecap="butt" transform="matrix(1,0,0,1,-35,-230)" text-rendering="geometricPrecision" font-family="sans-serif" shape-rendering="geometricPrecision" font-weight="bold" stroke-miterlimit="1.45">
      <text x="642.7959" xml:space="preserve" y="412.5669" clip-path="url(#clipPath15)" stroke="none">S3</text>
    </g>
    <g fill="rgb(232,238,247)" text-rendering="geometricPrecision" shape-rendering="geometricPrecision" transform="matrix(1,0,0,1,-35,-230)" stroke="rgb(232,238,247)">
      <rect x="685" width="42" height="26" y="396" clip-path="url(#clipPath2)" stroke="none"/>
      <rect x="684" y="395" clip-path="url(#clipPath2)" fill="white" width="1" height="28" stroke="none"/>
      <rect x="685" y="395" clip-path="url(#clipPath2)" fill="white" width="42" height="1" stroke="none"/>
      <rect x="685" y="422" clip-path="url(#clipPath2)" fill="rgb(162,166,172)" width="43" height="1" stroke="none"/>
      <rect x="727" y="395" clip-path="url(#clipPath2)" fill="rgb(162,166,172)" width="1" height="27" stroke="none"/>
    </g>
    <g font-size="13px" stroke-linecap="butt" transform="matrix(1,0,0,1,-35,-230)" text-rendering="geometricPrecision" font-family="sans-serif" shape-rendering="geometricPrecision" font-weight="bold" stroke-miterlimit="1.45">
      <text x="696.7959" xml:space="preserve" y="412.5669" clip-path="url(#clipPath16)" stroke="none">S4</text>
    </g>
    <g fill="rgb(232,238,247)" text-rendering="geometricPrecision" shape-rendering="geometricPrecision" transform="matrix(1,0,0,1,-35,-230)" stroke="rgb(232,238,247)">
      <rect x="501" width="226" height="26" y="326" clip-path="url(#clipPath2)" stroke="none"/>
      <rect x="500" y="325" clip-path="url(#clipPath2)" fill="white" width="1" height="28" stroke="none"/>
      <rect x="501" y="325" clip-path="url(#clipPath2)" fill="white" width="226" height="1" stroke="none"/>
      <rect x="501" y="352" clip-path="url(#clipPath2)" fill="rgb(162,166,172)" width="227" height="1" stroke="none"/>
      <rect x="727" y="325" clip-path="url(#clipPath2)" fill="rgb(162,166,172)" width="1" height="27" stroke="none"/>
    </g>
    <g font-size="13px" stroke-linecap="butt" transform="matrix(1,0,0,1,-35,-230)" text-rendering="geometricPrecision" font-family="sans-serif" shape-rendering="geometricPrecision" font-weight="bold" stroke-miterlimit="1.45">
      <text x="604.1421" xml:space="preserve" y="342.0669" clip-path="url(#clipPath17)" stroke="none">G1</text>
    </g>
    <g fill="rgb(232,238,247)" text-rendering="geometricPrecision" shape-rendering="geometricPrecision" transform="matrix(1,0,0,1,-35,-230)" stroke="rgb(232,238,247)">
      <rect x="457" width="98" height="26" y="467" clip-path="url(#clipPath2)" stroke="none"/>
      <rect x="456" y="466" clip-path="url(#clipPath2)" fill="white" width="1" height="28" stroke="none"/>
      <rect x="457" y="466" clip-path="url(#clipPath2)" fill="white" width="98" height="1" stroke="none"/>
      <rect x="457" y="493" clip-path="url(#clipPath2)" fill="rgb(162,166,172)" width="99" height="1" stroke="none"/>
      <rect x="555" y="466" clip-path="url(#clipPath2)" fill="rgb(162,166,172)" width="1" height="27" stroke="none"/>
    </g>
    <g font-size="13px" stroke-linecap="butt" transform="matrix(1,0,0,1,-35,-230)" text-rendering="geometricPrecision" font-family="sans-serif" shape-rendering="geometricPrecision" font-weight="bold" stroke-miterlimit="1.45">
      <text x="483.6943" xml:space="preserve" y="483.0669" clip-path="url(#clipPath18)" stroke="none">D1,D2</text>
    </g>
    <g fill="rgb(232,238,247)" text-rendering="geometricPrecision" shape-rendering="geometricPrecision" transform="matrix(1,0,0,1,-35,-230)" stroke="rgb(232,238,247)">
      <rect x="761" width="138" height="26" y="467" clip-path="url(#clipPath2)" stroke="none"/>
      <rect x="760" y="466" clip-path="url(#clipPath2)" fill="white" width="1" height="28" stroke="none"/>
      <rect x="761" y="466" clip-path="url(#clipPath2)" fill="white" width="138" height="1" stroke="none"/>
      <rect x="761" y="493" clip-path="url(#clipPath2)" fill="rgb(162,166,172)" width="139" height="1" stroke="none"/>
      <rect x="899" y="466" clip-path="url(#clipPath2)" fill="rgb(162,166,172)" width="1" height="27" stroke="none"/>
    </g>
    <g font-size="13px" stroke-linecap="butt" transform="matrix(1,0,0,1,-35,-230) translate(770,471)" text-rendering="geometricPrecision" font-family="sans-serif" shape-rendering="geometricPrecision" font-weight="bold" stroke-miterlimit="1.45">
      <text x="0" xml:space="preserve" y="12" clip-path="url(#clipPath20)" stroke="none">D3</text>
      <text x="20" xml:space="preserve" font-size="11px" y="18" clip-path="url(#clipPath20)" stroke="none">HOT</text>
      <text x="46" xml:space="preserve" y="12" clip-path="url(#clipPath20)" stroke="none"> → D3</text>
      <text x="87" xml:space="preserve" font-size="11px" y="18" clip-path="url(#clipPath20)" stroke="none">COLD</text>
    </g>
    <g fill="rgb(232,238,247)" text-rendering="geometricPrecision" shape-rendering="geometricPrecision" transform="matrix(1,0,0,1,-35,-230)" stroke="rgb(232,238,247)">
      <rect x="996" width="98" height="26" y="326" clip-path="url(#clipPath2)" stroke="none"/>
      <rect x="995" y="325" clip-path="url(#clipPath2)" fill="white" width="1" height="28" stroke="none"/>
      <rect x="996" y="325" clip-path="url(#clipPath2)" fill="white" width="98" height="1" stroke="none"/>
      <rect x="996" y="352" clip-path="url(#clipPath2)" fill="rgb(162,166,172)" width="99" height="1" stroke="none"/>
      <rect x="1094" y="325" clip-path="url(#clipPath2)" fill="rgb(162,166,172)" width="1" height="27" stroke="none"/>
    </g>
    <g font-size="13px" stroke-linecap="butt" transform="matrix(1,0,0,1,-35,-230)" text-rendering="geometricPrecision" font-family="sans-serif" shape-rendering="geometricPrecision" font-weight="bold" stroke-miterlimit="1.45">
      <text x="1035.1421" xml:space="preserve" y="342.0669" clip-path="url(#clipPath21)" stroke="none">G2</text>
    </g>
    <g fill="rgb(232,238,247)" text-rendering="geometricPrecision" shape-rendering="geometricPrecision" transform="matrix(1,0,0,1,-35,-230)" stroke="rgb(232,238,247)">
      <rect x="996" width="98" height="26" y="396" clip-path="url(#clipPath2)" stroke="none"/>
      <rect x="995" y="395" clip-path="url(#clipPath2)" fill="white" width="1" height="28" stroke="none"/>
      <rect x="996" y="395" clip-path="url(#clipPath2)" fill="white" width="98" height="1" stroke="none"/>
      <rect x="996" y="422" clip-path="url(#clipPath2)" fill="rgb(162,166,172)" width="99" height="1" stroke="none"/>
      <rect x="1094" y="395" clip-path="url(#clipPath2)" fill="rgb(162,166,172)" width="1" height="27" stroke="none"/>
    </g>
    <g font-size="13px" stroke-linecap="butt" transform="matrix(1,0,0,1,-35,-230)" text-rendering="geometricPrecision" font-family="sans-serif" shape-rendering="geometricPrecision" font-weight="bold" stroke-miterlimit="1.45">
      <text x="1035.7959" xml:space="preserve" y="412.5669" clip-path="url(#clipPath22)" stroke="none">S5</text>
    </g>
    <g fill="rgb(232,238,247)" text-rendering="geometricPrecision" shape-rendering="geometricPrecision" transform="matrix(1,0,0,1,-35,-230)" stroke="rgb(232,238,247)">
      <rect x="781" width="98" height="26" y="587" clip-path="url(#clipPath2)" stroke="none"/>
      <rect x="780" y="586" clip-path="url(#clipPath2)" fill="white" width="1" height="28" stroke="none"/>
      <rect x="781" y="586" clip-path="url(#clipPath2)" fill="white" width="98" height="1" stroke="none"/>
      <rect x="781" y="613" clip-path="url(#clipPath2)" fill="rgb(162,166,172)" width="99" height="1" stroke="none"/>
      <rect x="879" y="586" clip-path="url(#clipPath2)" fill="rgb(162,166,172)" width="1" height="27" stroke="none"/>
    </g>
    <g font-size="13px" stroke-linecap="butt" transform="matrix(1,0,0,1,-35,-230)" text-rendering="geometricPrecision" font-family="sans-serif" shape-rendering="geometricPrecision" font-weight="bold" stroke-miterlimit="1.45">
      <text x="794.4944" xml:space="preserve" y="603.0669" clip-path="url(#clipPath23)" stroke="none">L3 READY</text>
    </g>
    <g fill="rgb(232,238,247)" text-rendering="geometricPrecision" shape-rendering="geometricPrecision" transform="matrix(1,0,0,1,-35,-230)" stroke="rgb(232,238,247)">
      <rect x="781" width="98" height="26" y="503" clip-path="url(#clipPath2)" stroke="none"/>
      <rect x="780" y="502" clip-path="url(#clipPath2)" fill="white" width="1" height="28" stroke="none"/>
      <rect x="781" y="502" clip-path="url(#clipPath2)" fill="white" width="98" height="1" stroke="none"/>
      <rect x="781" y="529" clip-path="url(#clipPath2)" fill="rgb(162,166,172)" width="99" height="1" stroke="none"/>
      <rect x="879" y="502" clip-path="url(#clipPath2)" fill="rgb(162,166,172)" width="1" height="27" stroke="none"/>
    </g>
    <g font-size="13px" stroke-linecap="butt" transform="matrix(1,0,0,1,-35,-230)" text-rendering="geometricPrecision" font-family="sans-serif" shape-rendering="geometricPrecision" font-weight="bold" stroke-miterlimit="1.45">
      <text x="794.4944" xml:space="preserve" y="519.6269" clip-path="url(#clipPath24)" stroke="none">L2 READY</text>
    </g>
    <g fill="rgb(232,238,247)" text-rendering="geometricPrecision" shape-rendering="geometricPrecision" transform="matrix(1,0,0,1,-35,-230)" stroke="rgb(232,238,247)">
      <rect x="918" width="98" height="26" y="503" clip-path="url(#clipPath2)" stroke="none"/>
      <rect x="917" y="502" clip-path="url(#clipPath2)" fill="white" width="1" height="28" stroke="none"/>
      <rect x="918" y="502" clip-path="url(#clipPath2)" fill="white" width="98" height="1" stroke="none"/>
      <rect x="918" y="529" clip-path="url(#clipPath2)" fill="rgb(162,166,172)" width="99" height="1" stroke="none"/>
      <rect x="1016" y="502" clip-path="url(#clipPath2)" fill="rgb(162,166,172)" width="1" height="27" stroke="none"/>
    </g>
    <g font-size="13px" stroke-linecap="butt" transform="matrix(1,0,0,1,-35,-230)" text-rendering="geometricPrecision" font-family="sans-serif" shape-rendering="geometricPrecision" font-weight="bold" stroke-miterlimit="1.45">
      <text x="958.8555" xml:space="preserve" y="519.6269" clip-path="url(#clipPath25)" stroke="none">L2</text>
    </g>
    <g fill="rgb(232,238,247)" text-rendering="geometricPrecision" shape-rendering="geometricPrecision" transform="matrix(1,0,0,1,-35,-230)" stroke="rgb(232,238,247)">
      <rect x="918" width="98" height="26" y="587" clip-path="url(#clipPath2)" stroke="none"/>
      <rect x="917" y="586" clip-path="url(#clipPath2)" fill="white" width="1" height="28" stroke="none"/>
      <rect x="918" y="586" clip-path="url(#clipPath2)" fill="white" width="98" height="1" stroke="none"/>
      <rect x="918" y="613" clip-path="url(#clipPath2)" fill="rgb(162,166,172)" width="99" height="1" stroke="none"/>
      <rect x="1016" y="586" clip-path="url(#clipPath2)" fill="rgb(162,166,172)" width="1" height="27" stroke="none"/>
    </g>
    <g font-size="13px" stroke-linecap="butt" transform="matrix(1,0,0,1,-35,-230)" text-rendering="geometricPrecision" font-family="sans-serif" shape-rendering="geometricPrecision" font-weight="bold" stroke-miterlimit="1.45">
      <text x="958.8555" xml:space="preserve" y="603.0669" clip-path="url(#clipPath26)" stroke="none">L3</text>
    </g>
    <g fill="rgb(232,238,247)" text-rendering="geometricPrecision" shape-rendering="geometricPrecision" transform="matrix(1,0,0,1,-35,-230)" stroke="rgb(232,238,247)">
      <rect x="551" width="98" height="26" y="630" clip-path="url(#clipPath2)" stroke="none"/>
      <rect x="550" y="629" clip-path="url(#clipPath2)" fill="white" width="1" height="28" stroke="none"/>
      <rect x="551" y="629" clip-path="url(#clipPath2)" fill="white" width="98" height="1" stroke="none"/>
      <rect x="551" y="656" clip-path="url(#clipPath2)" fill="rgb(162,166,172)" width="99" height="1" stroke="none"/>
      <rect x="649" y="629" clip-path="url(#clipPath2)" fill="rgb(162,166,172)" width="1" height="27" stroke="none"/>
    </g>
    <g font-size="13px" stroke-linecap="butt" transform="matrix(1,0,0,1,-35,-230)" text-rendering="geometricPrecision" font-family="sans-serif" shape-rendering="geometricPrecision" font-weight="bold" stroke-miterlimit="1.45">
      <text x="590.707" xml:space="preserve" y="646.9014" clip-path="url(#clipPath27)" stroke="none">C1</text>
    </g>
    <g fill="rgb(232,238,247)" text-rendering="geometricPrecision" shape-rendering="geometricPrecision" transform="matrix(1,0,0,1,-35,-230)" stroke="rgb(232,238,247)">
      <rect x="701" width="98" height="26" y="630" clip-path="url(#clipPath2)" stroke="none"/>
      <rect x="700" y="629" clip-path="url(#clipPath2)" fill="white" width="1" height="28" stroke="none"/>
      <rect x="701" y="629" clip-path="url(#clipPath2)" fill="white" width="98" height="1" stroke="none"/>
      <rect x="701" y="656" clip-path="url(#clipPath2)" fill="rgb(162,166,172)" width="99" height="1" stroke="none"/>
      <rect x="799" y="629" clip-path="url(#clipPath2)" fill="rgb(162,166,172)" width="1" height="27" stroke="none"/>
    </g>
    <g font-size="13px" stroke-linecap="butt" transform="matrix(1,0,0,1,-35,-230)" text-rendering="geometricPrecision" font-family="sans-serif" shape-rendering="geometricPrecision" font-weight="bold" stroke-miterlimit="1.45">
      <text x="740.707" xml:space="preserve" y="646.9014" clip-path="url(#clipPath28)" stroke="none">C2</text>
    </g>
    <g fill="rgb(232,238,247)" text-rendering="geometricPrecision" shape-rendering="geometricPrecision" transform="matrix(1,0,0,1,-35,-230)" stroke="rgb(232,238,247)">
      <rect x="865" width="98" height="26" y="630" clip-path="url(#clipPath2)" stroke="none"/>
      <rect x="864" y="629" clip-path="url(#clipPath2)" fill="white" width="1" height="28" stroke="none"/>
      <rect x="865" y="629" clip-path="url(#clipPath2)" fill="white" width="98" height="1" stroke="none"/>
      <rect x="865" y="656" clip-path="url(#clipPath2)" fill="rgb(162,166,172)" width="99" height="1" stroke="none"/>
      <rect x="963" y="629" clip-path="url(#clipPath2)" fill="rgb(162,166,172)" width="1" height="27" stroke="none"/>
    </g>
    <g font-size="13px" stroke-linecap="butt" transform="matrix(1,0,0,1,-35,-230)" text-rendering="geometricPrecision" font-family="sans-serif" shape-rendering="geometricPrecision" font-weight="bold" stroke-miterlimit="1.45">
      <text x="904.707" xml:space="preserve" y="646.9014" clip-path="url(#clipPath29)" stroke="none">C3</text>
    </g>
    <g fill="rgb(232,238,247)" text-rendering="geometricPrecision" shape-rendering="geometricPrecision" transform="matrix(1,0,0,1,-35,-230)" stroke="rgb(232,238,247)">
      <rect x="501" width="98" height="26" y="541" clip-path="url(#clipPath2)" stroke="none"/>
      <rect x="500" y="540" clip-path="url(#clipPath2)" fill="white" width="1" height="28" stroke="none"/>
      <rect x="501" y="540" clip-path="url(#clipPath2)" fill="white" width="98" height="1" stroke="none"/>
      <rect x="501" y="567" clip-path="url(#clipPath2)" fill="rgb(162,166,172)" width="99" height="1" stroke="none"/>
      <rect x="599" y="540" clip-path="url(#clipPath2)" fill="rgb(162,166,172)" width="1" height="27" stroke="none"/>
    </g>
    <g font-size="13px" stroke-linecap="butt" transform="matrix(1,0,0,1,-35,-230)" text-rendering="geometricPrecision" font-family="sans-serif" shape-rendering="geometricPrecision" font-weight="bold" stroke-miterlimit="1.45">
      <text x="541.3354" xml:space="preserve" y="557.4982" clip-path="url(#clipPath30)" stroke="none">L1</text>
      <path fill="none" d="M325 270 L1107 270" clip-path="url(#clipPath2)"/>
      <path d="M1115 270 L1103 265 L1106 270 L1103 275 Z" stroke="none" clip-path="url(#clipPath2)"/>
      <path fill="none" d="M320.0049 554.4313 L352.0369 554.4313" clip-path="url(#clipPath2)"/>
      <path d="M360.0369 554.4313 L348.0369 549.4313 L351.0369 554.4313 L348.0369 559.4313 Z" stroke="none" clip-path="url(#clipPath2)"/>
      <path fill="none" d="M319.9878 409.5 L491.9542 409.5" clip-path="url(#clipPath2)"/>
      <path d="M499.9542 409.5 L487.9542 404.5 L490.9542 409.5 L487.9542 414.5 Z" stroke="none" clip-path="url(#clipPath2)"/>
      <path fill="none" d="M320.0127 339 L491.9866 339" clip-path="url(#clipPath2)"/>
      <path d="M499.9866 339 L487.9866 334 L490.9866 339 L487.9866 344 Z" stroke="none" clip-path="url(#clipPath2)"/>
      <path fill="none" d="M319.9829 480 L447.9988 480" clip-path="url(#clipPath2)"/>
      <path d="M455.9988 480 L443.9988 475 L446.9988 480 L443.9988 485 Z" stroke="none" clip-path="url(#clipPath2)"/>
      <path fill="none" d="M556.0317 480 L752.003 480" clip-path="url(#clipPath2)"/>
      <path d="M760.003 480 L748.003 475 L751.003 480 L748.003 485 Z" stroke="none" clip-path="url(#clipPath2)"/>
      <path fill="none" d="M727.9846 339 L986.9633 339" clip-path="url(#clipPath2)"/>
      <path d="M994.9633 339 L982.9633 334 L985.9633 339 L982.9633 344 Z" stroke="none" clip-path="url(#clipPath2)"/>
      <path fill="none" d="M1095.0183 339 L1112.0244 339" clip-path="url(#clipPath2)"/>
      <path d="M1120.0244 339 L1108.0244 334 L1111.0244 339 L1108.0244 344 Z" stroke="none" clip-path="url(#clipPath2)"/>
      <path fill="none" d="M727.9738 409.5 L986.9615 409.5" clip-path="url(#clipPath2)"/>
      <path d="M994.9615 409.5 L982.9615 404.5 L985.9615 409.5 L982.9615 414.5 Z" stroke="none" clip-path="url(#clipPath2)"/>
      <path fill="none" d="M879.992 516.56 L909.559 516.56" clip-path="url(#clipPath2)"/>
      <path d="M917.559 516.56 L905.559 511.56 L908.559 516.56 L905.559 521.56 Z" stroke="none" clip-path="url(#clipPath2)"/>
      <path fill="none" d="M879.992 600 L909.559 600" clip-path="url(#clipPath2)"/>
      <path d="M917.559 600 L905.559 595 L908.559 600 L905.559 605 Z" stroke="none" clip-path="url(#clipPath2)"/>
      <path fill="none" d="M319.9915 643.8345 L541.9936 643.8345" clip-path="url(#clipPath2)"/>
      <path d="M549.9936 643.8345 L537.9936 638.8345 L540.9936 643.8345 L537.9936 648.8345 Z" stroke="none" clip-path="url(#clipPath2)"/>
      <path fill="none" d="M649.9878 643.8345 L692.0427 643.8345" clip-path="url(#clipPath2)"/>
      <path d="M700.0427 643.8345 L688.0427 638.8345 L691.0427 643.8345 L688.0427 648.8345 Z" stroke="none" clip-path="url(#clipPath2)"/>
      <path fill="none" d="M800.0088 643.8345 L855.9897 643.8345" clip-path="url(#clipPath2)"/>
      <path d="M863.9897 643.8345 L851.9897 638.8345 L854.9897 643.8345 L851.9897 648.8345 Z" stroke="none" clip-path="url(#clipPath2)"/>
      <path fill="none" d="M460.0049 554.4313 L492.0369 554.4313" clip-path="url(#clipPath2)"/>
      <path d="M500.0369 554.4313 L488.0369 549.4313 L491.0369 554.4313 L488.0369 559.4313 Z" stroke="none" clip-path="url(#clipPath2)"/>
      <path fill="none" d="M600.0049 547.668 L772.0696 524.3954" clip-path="url(#clipPath2)"/>
      <path d="M779.9974 523.3231 L767.4355 519.9766 L771.0786 524.5294 L768.7758 529.8864 Z" stroke="none" clip-path="url(#clipPath2)"/>
      <path fill="none" d="M600.0049 562.5694 L772.1013 590.5773" clip-path="url(#clipPath2)"/>
      <path d="M779.9974 591.8623 L768.9564 584.9997 L771.1143 590.4166 L767.35 594.8698 Z" stroke="none" clip-path="url(#clipPath2)"/>
    </g>
  </g>
</svg>
