<?xml version="1.0" encoding="UTF-8" standalone="no"?>
<svg
   xmlns:svg="http://www.w3.org/2000/svg"
   xmlns="http://www.w3.org/2000/svg"
   width="5cm"
   height="5cm"
   viewBox="0 0 177.16535 177.16535"
   id="svg2"
   version="1.1">
  <defs
     id="defs4" />
  <g
     id="layer1"
     transform="translate(0,-875.1969)">
    <g
       id="g4147"
       transform="translate(37.142854,-5.7142855)">
      <rect
         style="opacity:1;fill:#4a148c;fill-opacity:1;stroke:none;stroke-width:0;stroke-linecap:round;stroke-linejoin:round;stroke-miterlimit:4;stroke-dasharray:none;stroke-opacity:1"
         id="rect4191"
         width="195.96968"
         height="195.96968"
         x="-44.671333"
         y="872.20831" />
      <g
         id="g4327">
        <g
           style="fill:#ffffff"
           transform="matrix(0.58205753,0,0,0.58205753,40.210067,397.41848)"
           id="g4238">
          <path
             id="rect4316"
             d="m 98.386004,944.93887 c -0.370435,0 -6.960747,4.48223 -6.960747,4.73416 0,0.093 -0.711161,0.84893 -0.267633,1.11712 1.106646,0.66917 0.39118,0.56442 0.388888,1.52248 -0.0015,0.58502 0.629135,1.0371 0.319749,1.51514 -0.224084,0.34626 0.972656,0.66477 0.972656,0.70732 0,0.29241 0.784078,-0.25366 3.86988,-2.69458 5.727003,-4.53015 5.655603,-4.46752 5.655603,-4.95119 0,-0.23449 -0.0837,-0.49201 -0.18603,-0.57264 -0.29907,-0.23567 -3.44307,-1.37781 -3.792366,-1.37781 z"
             style="opacity:1;fill:#ffffff;fill-opacity:1;stroke:none;stroke-width:0;stroke-linecap:round;stroke-linejoin:round;stroke-miterlimit:4;stroke-dasharray:none;stroke-opacity:1" />
        </g>
        <g
           id="g4323">
          <path
             style="opacity:0.98999999;fill:#ffffff;fill-opacity:1;stroke:none;stroke-width:0.36539048;stroke-linecap:round;stroke-linejoin:round;stroke-miterlimit:4;stroke-dasharray:none;stroke-opacity:1"
             d="m 51.803248,927.62658 c -0.145439,10e-5 -0.295609,0.004 -0.451863,0.0118 -1.043142,0.0513 -1.654785,0.20699 -2.22341,0.56541 -0.527355,0.3324 -0.652732,0.52224 -0.584259,0.88726 0.06733,0.35897 0.07287,0.35562 -0.816638,0.46539 -0.248525,0.0307 -0.950631,0.15551 -1.560345,0.27712 -3.349574,0.66811 -5.371633,1.84373 -6.341393,3.68728 -0.513738,0.97664 -0.357604,1.21721 0.698401,1.0773 0.38309,-0.0508 0.73006,-0.0617 0.771331,-0.0247 0.04127,0.037 -0.446622,0.41212 -1.084352,0.8343 -2.96543,1.96315 -4.63865,4.10157 -4.63865,5.92777 0,0.82369 0.09555,0.85236 1.155535,0.34419 0.482711,-0.23142 0.929453,-0.42076 0.993166,-0.42068 0.297597,3e-4 0.183185,0.31998 -0.413636,1.15143 -1.704519,2.37463 -2.518416,4.07104 -2.738835,5.7089 -0.163454,1.21463 0.157248,2.63728 0.609564,2.70176 0.134806,0.0192 0.313653,-0.10108 0.587754,-0.39655 0.581066,-0.6263 1.070073,-0.96465 1.217923,-0.84195 0.0992,0.0823 0.09823,0.14174 -0.0069,0.34537 -0.185897,0.35948 -0.500695,1.65352 -0.500695,2.05809 0,0.23711 -0.05841,0.39848 -0.181227,0.50364 -0.09941,0.0851 -0.180625,0.22299 -0.180625,0.30654 0,0.16983 0.251296,0.48246 0.387729,0.48246 0.04865,0 0.388,0.28456 0.754281,0.63249 0.69358,0.65883 1.003167,1.06484 1.299288,0.79686 0.102603,-0.0929 0.355526,-0.5219 0.355526,-0.72676 0,-1.17959 1.935091,-4.46299 4.269327,-7.58552 1.753863,-2.34617 2.2864,-3.46079 2.900693,-4.73848 0.563474,-1.17197 0.816788,-1.51119 1.570226,-1.88146 0.400712,-0.19693 0.647821,-0.41665 1.571099,-0.35494 l 0.85357,0.0571 1.082424,0.63327 c 1.106704,0.55909 1.615232,0.60427 2.384936,0.69702 1.700633,0.20491 4.251915,-0.34474 6.642815,-1.12976 1.56634,-0.51428 2.037664,-0.50117 2.952507,0.22655 0.492019,0.44452 0.70807,0.91701 1.32649,2.31915 0.850438,1.92824 1.273412,2.79846 1.966149,4.10359 0.565342,1.06511 1.077393,1.78697 3.162864,4.88485 0.234246,0.34793 0.461112,0.91854 0.56989,1.25136 0.108749,0.33282 0.373752,0.96463 0.473613,1.09159 l 0.558353,0.1365 1.696266,0.0538 c 1.124989,0.0357 1.566942,-0.2069 1.643126,-0.28309 0.30067,-0.30066 -0.127064,-2.01347 -0.698219,-3.04528 -0.16957,-0.30631 -0.308292,-0.58093 -0.308292,-0.61014 0,-0.18583 0.352273,0.0359 0.993738,0.62485 0.406045,0.37278 0.789888,0.67779 0.852546,0.67779 0.06266,0 0.187885,-0.0819 0.278288,-0.1818 0.135439,-0.14966 0.170925,-0.38387 0.204182,-1.33265 0.08519,-2.43112 -0.604925,-4.52174 -2.21639,-6.7097 -0.274553,-0.37279 -0.600527,-0.78707 -0.724277,-0.92079 -0.272836,-0.29482 -0.220178,-0.56912 0.09179,-0.47834 0.112092,0.0326 0.533681,0.22248 0.937255,0.42186 0.763379,0.37711 0.988075,0.40569 1.152042,0.14532 0.140228,-0.22267 -0.133481,-1.1936 -0.62074,-2.20342 -0.788352,-1.63384 -2.222054,-3.26106 -3.76788,-4.27682 -0.462648,-0.304 -0.895111,-0.59766 -0.961384,-0.65249 -0.228854,-0.18943 0.03271,-0.24993 0.633091,-0.1471 0.644869,0.11047 0.888424,0.0326 0.888424,-0.283 0,-0.38319 -1.310616,-1.9659 -2.210487,-2.66999 -1.707472,-1.33597 -3.229468,-1.95028 -5.697125,-2.29933 l -1.084955,-0.15356 -0.0069,-0.26771 c -0.0042,-0.14714 -0.01476,-0.31252 -0.02289,-0.36773 -0.02289,-0.15285 -0.972259,-0.62595 -1.732143,-0.86313 -1.01121,-0.31561 -2.480912,-0.29616 -3.468987,0.0459 -0.392187,0.13576 -0.883935,0.34724 -1.092606,0.46951 -0.513648,0.30103 -0.739399,0.28127 -1.521484,-0.13062 -0.834743,-0.43962 -1.61005,-0.62853 -2.628219,-0.62778 z m 1.020489,15.10961 c -1.621949,0.0877 -3.017424,0.49754 -4.293547,1.7824 -0.923278,0.92962 -1.676835,2.54022 -1.676835,3.58297 0,0.56729 0.158543,1.89483 0.517594,2.36506 1.813057,2.3745 6.608113,2.40977 8.631949,-0.4944 0.278468,-0.3996 0.251236,-0.28923 0.251236,-0.21257 0,0.0797 -0.151043,0.27574 -0.648093,1.79375 -0.998136,3.04836 -1.047058,3.72744 -0.715631,3.72744 0.04754,0 1.676745,-0.84196 2.934522,-1.6154 1.257747,-0.77343 2.363397,-1.59746 2.422591,-1.66876 0.144747,-0.17444 0.190928,-0.46509 -1.289257,-2.13492 -0.676861,-0.7636 -0.81242,-0.90858 -0.81242,-0.90858 0.01295,-0.0505 0.314708,-0.0195 0.457497,0.0122 0.998046,0.22187 0.327209,0.14659 0.813504,0.0567 1.128243,-0.20857 2.281429,-1.03585 2.710338,-1.91252 0.502834,-1.02776 0.14544,-2.3868 -0.789948,-2.91308 -0.445206,-0.25048 -0.762293,-0.49228 -1.409844,-0.48626 -0.867367,0.008 -2.392346,0.21916 -2.915966,0.68986 l -0.238132,1.50815 1.186985,-0.19631 c 0.510395,-0.0679 0.538893,-0.19262 0.77344,0.16533 0.596731,0.91073 0.285427,1.37834 -0.913246,1.49352 -0.261177,0.0251 -0.626162,0.13044 -0.779826,0.0668 -0.234367,-0.0971 -0.700449,-0.004 -1.073748,0.17659 -0.515456,0.24953 -0.567993,0.15624 -0.956836,-0.0735 -0.328325,-0.19394 -0.247682,-0.25419 -0.244971,-0.60904 0.003,-0.3383 0.19888,-0.49961 0.471806,-0.7505 0.465721,-0.42816 1.056367,-0.48026 1.61975,-0.26606 0.469185,0.17838 0.620288,-0.7069 0.269883,-1.29513 -0.381011,-0.63963 -0.934363,-1.02866 -1.658399,-1.39416 -0.64966,-0.32795 -0.911831,-0.58335 -1.649121,-0.54348 z m 3.417534,21.88688 c -2.038898,0.0287 -4.151059,0.52949 -6.196645,1.52151 -4.298247,2.08449 -8.567905,7.2394 -10.039143,11.96791 -0.634898,2.04055 -0.510304,3.05039 -0.510304,5.46708 0,2.39593 0.262984,3.22394 0.84625,4.96512 1.556519,4.64665 5.81949,8.50699 10.584903,9.07468 1.021362,0.12166 3.765529,-0.44549 4.901815,-0.66477 6.573319,-1.26852 11.799392,-7.31175 13.317473,-14.39307 0.225691,-1.0528 0.296332,-1.28604 0.296784,-3.34602 3.01e-4,-2.11585 -0.171919,-2.53092 -0.416136,-3.56381 -0.608781,-2.57531 -1.632162,-4.97372 -3.254834,-6.68936 -2.345051,-2.47942 -6.131938,-4.38714 -9.530163,-4.33927 z"
             id="rect4184" />
          <path
             style="fill:#000001"
             d="m 36.776949,1012.9957 c -0.633091,-0.072 -1.679728,-0.3282 -1.998924,-0.4903 -0.503406,-0.2555 -1.399572,-1.2887 -1.613273,-1.8598 -0.309467,-0.8272 -0.201351,-1.287 0.438307,-1.8642 0.749762,-0.6766 2.340171,-1.1543 4.439107,-1.3334 0.621313,-0.053 1.393999,-0.1249 1.717082,-0.1598 l 0.587422,-0.063 -0.01838,-0.5874 c -0.0099,-0.324 -0.172191,-1.1918 -0.361491,-1.9351 l -0.343206,-1.3478 -0.60619,-0.3693 c -1.857912,-1.1322 -3.298151,-2.8886 -4.586475,-5.5933 -0.336126,-0.70561 -0.633693,-1.36427 -0.661317,-1.46368 -0.02771,-0.0994 -0.138059,-0.40442 -0.245452,-0.6778 -0.93099,-2.3701 -1.818691,-6.38737 -1.815136,-8.2143 0.003,-0.92329 -0.104712,-2.58978 -0.169901,-2.65871 -0.199994,-0.21142 -0.663637,-0.0466 -2.082458,0.7402 -2.353546,1.30516 -3.021491,1.43911 -3.715493,0.74511 -0.443127,-0.44311 -0.653455,-1.15063 -0.661498,-2.22519 -0.0054,-0.73938 0.01868,-1.03742 0.175052,-2.16895 0.09245,-0.66837 0.514492,-2.34459 0.73949,-2.93711 1.257536,-3.31165 5.014359,-10.75488 10.023809,-19.85978 0.964096,-1.75231 1.752929,-3.22854 1.752929,-3.2805 0,-0.25534 0.287927,-0.62774 0.485362,-0.62774 0.327751,0 0.517444,-0.29204 0.597333,-0.9196 0.09113,-0.716 0.304767,-1.25837 1.079592,-2.74049 0.955782,-1.82829 1.628125,-2.88272 3.078034,-4.82724 1.819444,-2.44019 2.343937,-3.23847 2.983625,-4.54127 0.781182,-1.59094 1.314682,-2.09379 2.4757,-2.33342 0.930719,-0.1921 1.532691,-0.0665 2.829419,0.59014 1.44274,0.73065 1.776276,0.79902 3.596563,0.7373 1.77754,-0.0603 2.681749,-0.24253 4.877264,-0.98303 1.406681,-0.47444 1.686354,-0.54125 2.091013,-0.49949 1.195932,0.12343 1.780162,0.82715 2.978655,3.58791 0.183396,0.42249 0.757684,1.60965 1.276183,2.63813 0.871162,1.7281 1.662616,3.01819 3.315895,5.40504 0.348658,0.50336 0.676078,1.10155 0.791393,1.44596 0.108207,0.32308 0.28853,0.73356 0.400743,0.91218 l 0.204032,0.32475 0.888936,0.0589 c 1.856135,0.12291 2.663976,0.055 2.851319,-0.23956 0.0375,-0.059 0.06883,-0.25484 0.06962,-0.43515 0,-0.18031 0.05221,-0.36653 0.114351,-0.41383 0.123209,-0.0938 0.577813,-0.21898 3.501943,-0.96421 2.697203,-0.68739 6.455021,-1.52222 7.726836,-1.71656 0.149115,-0.0228 0.645502,-0.10365 1.103059,-0.17969 1.775944,-0.29515 2.845144,-0.27899 4.906726,0.0741 1.097727,0.18804 2.399576,0.83074 2.722056,1.34383 0.272323,0.43332 0.190505,1.01435 -0.234306,1.66368 -0.431048,0.65886 -2.892258,3.09444 -3.972031,3.9307 -2.690336,2.08358 -5.751862,3.75449 -7.736928,4.22266 -0.707378,0.16683 -1.100318,0.21539 -2.662772,0.32909 -0.29823,0.0217 -1.030249,0.0799 -1.626708,0.12934 -0.59646,0.0494 -1.267478,0.0886 -1.49115,0.0871 -0.564287,-0.004 -3.092855,0.17059 -3.230824,0.22293 -0.18903,0.0717 -0.131673,0.51515 0.331125,2.55982 0.41704,1.84242 0.575132,2.59086 0.680386,3.22087 0.0244,0.14554 0.08462,0.47088 0.133963,0.72298 0.04937,0.2521 0.112182,0.6007 0.139535,0.77466 0.02741,0.17397 0.151013,0.94666 0.274733,1.71709 0.285578,1.77816 0.550189,4.13276 0.685507,6.10015 0.120467,1.75123 0.05883,6.03177 -0.102151,7.09426 -0.05645,0.37279 -0.102874,0.7388 -0.103115,0.81336 -2.71e-4,0.0746 -0.06073,0.5219 -0.134415,0.9941 -0.07368,0.47219 -0.1505,0.97907 -0.170683,1.12639 -0.154899,1.13024 -0.72253,3.62006 -1.216327,5.33525 -0.157399,0.54676 -0.34191,1.19744 -0.409991,1.44597 -0.183667,0.67036 -1.179002,3.23129 -1.510338,3.88602 -0.343326,0.67846 -2.099358,2.58515 -3.342796,3.62965 -0.590556,0.496 -0.700389,0.6313 -0.700389,0.8626 0,0.1508 -0.208188,1.1742 -0.462588,2.2741 -0.254429,1.0999 -0.467949,2.2235 -0.474456,2.4969 l -0.01175,0.497 0.587423,0.063 c 0.323082,0.035 1.095769,0.1072 1.717081,0.1608 1.316309,0.1135 2.809567,0.4341 3.544147,0.7611 0.944214,0.4202 1.516725,1.0993 1.516725,1.799 0,0.4924 -0.481898,1.3315 -1.112368,1.9369 -0.474637,0.4558 -0.675867,0.5804 -1.197528,0.7415 -0.87776,0.2712 -1.451748,0.3223 -3.519144,0.3135 -2.278386,-0.01 -2.367795,-0.014 -3.84087,-0.1761 -0.670987,-0.074 -1.443674,-0.1556 -1.717051,-0.1816 -0.273377,-0.026 -1.168067,-0.1497 -1.9882,-0.2749 -0.820132,-0.1253 -1.633486,-0.2464 -1.807454,-0.2692 -0.173967,-0.023 -0.519643,-0.082 -0.768168,-0.132 -0.595134,-0.1194 -0.734489,-0.1438 -1.236268,-0.2166 -0.773771,-0.1123 -1.007415,-0.4577 -1.105047,-1.6338 -0.0247,-0.2982 -0.103387,-0.9895 -0.174691,-1.5363 -0.0713,-0.5468 -0.130649,-1.0551 -0.131854,-1.1297 0,-0.074 -0.06221,-0.5829 -0.135559,-1.1296 -0.07335,-0.5468 -0.133872,-1.0551 -0.134504,-1.1297 -0.003,-0.2424 -0.200899,-1.4647 -0.251628,-1.5468 -0.06172,-0.1 -3.44564,-0.1067 -3.507184,-0.01 -0.04437,0.072 -0.340645,2.1036 -0.345164,2.3673 0,0.074 -0.06236,0.5829 -0.135709,1.1296 -0.07335,0.5468 -0.134354,1.0551 -0.135559,1.1297 0,0.075 -0.06046,0.5829 -0.131673,1.1296 -0.07121,0.5468 -0.14538,1.1711 -0.16484,1.3873 -0.03413,0.38 -0.211141,0.673 -0.499761,0.8274 -0.128239,0.069 -1.800465,0.3925 -2.529351,0.4898 -0.173968,0.023 -0.987322,0.1448 -1.807455,0.27 -0.820132,0.1253 -1.714822,0.249 -1.988199,0.275 -0.273378,0.026 -1.046064,0.1087 -1.717081,0.1839 -0.671018,0.075 -1.362369,0.1397 -1.536336,0.1435 -1.872583,0.041 -4.084455,0.054 -4.33789,0.025 z m 17.946332,-16.2101 c 4.703598,-0.80412 9.103363,-4.0192 11.777009,-8.6059 4.619491,-7.9249 2.524291,-17.57062 -4.59009,-21.13149 -2.124029,-1.06311 -4.909678,-1.50133 -7.391071,-1.16272 -4.686337,0.63948 -9.232114,3.73125 -11.97583,8.14528 -1.917437,3.08467 -2.890962,6.65364 -2.756126,10.10391 0.179058,4.5817 2.246394,8.51375 5.683118,10.8093 1.326068,0.88576 3.119153,1.59918 4.727004,1.88078 1.120049,0.19616 3.257665,0.17767 4.525986,-0.0392 z m 3.124817,-43.21966 c 2.237236,-1.3803 2.382224,-1.48588 2.408222,-1.75344 0.0244,-0.25253 -0.105616,-0.43409 -1.152252,-1.60709 -0.648937,-0.72732 -1.179906,-1.33114 -1.179906,-1.34184 0,-0.0107 0.416859,-0.0194 0.92632,-0.0194 0.815885,0 0.987924,-0.0289 1.443071,-0.2422 0.607305,-0.28464 1.348511,-0.94853 1.668371,-1.49433 0.274582,-0.46854 0.372606,-1.29455 0.211532,-1.78258 -0.06121,-0.18548 -0.238855,-0.48252 -0.394778,-0.6601 -0.876555,-0.99835 -2.802187,-1.00882 -4.104879,-0.0223 -0.26196,0.19837 -0.505967,0.36009 -0.542236,0.35938 -0.03627,-6e-4 -0.174239,-0.19776 -0.306635,-0.43788 -0.420323,-0.76242 -1.722865,-1.4761 -2.985161,-1.63563 -0.728283,-0.092 -1.708707,-0.002 -2.508083,0.23015 -1.56637,0.45502 -3.218986,1.7763 -3.88687,3.10755 -0.369504,0.73651 -0.477771,1.25896 -0.437856,2.11285 0.04802,1.02726 0.327029,1.65305 1.035972,2.32354 0.916139,0.86643 2.04634,1.22464 3.600329,1.14109 1.596012,-0.0858 3.010917,-0.71581 4.27011,-1.90128 0.260966,-0.24567 0.474457,-0.42976 0.474457,-0.40909 0,0.0207 -0.36601,1.13392 -0.813355,2.47389 -0.447345,1.33996 -0.813354,2.52051 -0.813354,2.62344 0,0.25587 0.169298,0.40404 0.461654,0.40404 0.158423,0 1.084653,-0.51819 2.625327,-1.46873 z m -2.877889,-5.66621 c -0.356249,-0.21723 -0.48021,-0.43965 -0.48021,-0.86159 0,-0.62931 0.500574,-1.22067 1.19057,-1.40646 0.29353,-0.079 0.455508,-0.0711 0.792267,0.0391 0.408605,0.13364 0.438579,0.13073 0.862276,-0.0838 0.956987,-0.48449 1.854267,-0.0859 1.854267,0.82381 0,0.97396 -1.200179,1.70803 -2.112763,1.29222 -0.187192,-0.0853 -0.30079,-0.0633 -0.699816,0.13556 -0.565582,0.28185 -1.012716,0.30128 -1.406591,0.0611 z"
             id="path4149" />
        </g>
      </g>
    </g>
  </g>
</svg>
