<?xml version="1.0" encoding="UTF-8" standalone="no"?>
<!-- Created with Inkscape (http://www.inkscape.org/) -->

<svg
   xmlns:dc="http://purl.org/dc/elements/1.1/"
   xmlns:cc="http://creativecommons.org/ns#"
   xmlns:rdf="http://www.w3.org/1999/02/22-rdf-syntax-ns#"
   xmlns:svg="http://www.w3.org/2000/svg"
   xmlns="http://www.w3.org/2000/svg"
   xmlns:sodipodi="http://sodipodi.sourceforge.net/DTD/sodipodi-0.dtd"
   xmlns:inkscape="http://www.inkscape.org/namespaces/inkscape"
   width="100mm"
   height="100mm"
   viewBox="0 0 354.33071 354.33071"
   id="svg4208"
   version="1.1"
   inkscape:version="0.91 r13725"
   sodipodi:docname="fb.svg">
  <defs
     id="defs4210">
    <clipPath
       clipPathUnits="userSpaceOnUse"
       id="clipPath54">
      <path
         d="M 0,500 1024,500 1024,0 0,0 0,500 Z"
         id="path56"
         inkscape:connector-curvature="0" />
    </clipPath>
  </defs>
  <sodipodi:namedview
     id="base"
     pagecolor="#ffffff"
     bordercolor="#666666"
     borderopacity="1.0"
     inkscape:pageopacity="0.0"
     inkscape:pageshadow="2"
     inkscape:zoom="1.979899"
     inkscape:cx="160.29399"
     inkscape:cy="148.07162"
     inkscape:document-units="px"
     inkscape:current-layer="layer1"
     showgrid="false"
     fit-margin-top="2.7755576e-17"
     fit-margin-left="0"
     fit-margin-right="0"
     fit-margin-bottom="0"
     inkscape:window-width="1920"
     inkscape:window-height="1026"
     inkscape:window-x="0"
     inkscape:window-y="0"
     inkscape:window-maximized="1" />
  <metadata
     id="metadata4213">
    <rdf:RDF>
      <cc:Work
         rdf:about="">
        <dc:format>image/svg+xml</dc:format>
        <dc:type
           rdf:resource="http://purl.org/dc/dcmitype/StillImage" />
        <dc:title></dc:title>
      </cc:Work>
    </rdf:RDF>
  </metadata>
  <g
     inkscape:label="Livello 1"
     inkscape:groupmode="layer"
     id="layer1"
     transform="translate(-216.04902,-333.4123)">
    <g
       transform="matrix(1.25,0,0,-1.25,71.607393,826.43388)"
       id="g50">
      <g
         id="g52"
         clip-path="url(#clipPath54)">
        <g
           id="g58"
           transform="translate(375.7163,120.5527)">
          <path
             d="m 0,0 c 8.134,0 14.73,6.596 14.73,14.73 l 0,237.434 c 0,8.137 -6.596,14.731 -14.73,14.731 l -237.433,0 c -8.137,0 -14.73,-6.594 -14.73,-14.731 l 0,-237.434 c 0,-8.134 6.593,-14.73 14.73,-14.73 L 0,0 Z"
             style="fill:#3c5a99;fill-opacity:1;fill-rule:nonzero;stroke:none"
             id="path60"
             inkscape:connector-curvature="0" />
        </g>
        <g
           id="g62"
           transform="translate(307.7046,120.5527)">
          <path
             d="m 0,0 0,103.355 34.693,0 5.194,40.28 -39.887,0 0,25.717 c 0,11.662 3.238,19.609 19.962,19.609 l 21.33,0.01 0,36.026 c -3.69,0.49 -16.351,1.587 -31.081,1.587 -30.753,0 -51.806,-18.771 -51.806,-53.244 l 0,-29.705 -34.781,0 0,-40.28 34.781,0 L -41.595,0 0,0 Z"
             style="fill:#ffffff;fill-opacity:1;fill-rule:nonzero;stroke:none"
             id="path64"
             inkscape:connector-curvature="0" />
        </g>
      </g>
    </g>
  </g>
</svg>
